<?xml version="1.0" encoding="UTF-8"?>
<svg width="18px" height="21px" viewBox="0 0 18 21" version="1.1" xmlns="http://www.w3.org/2000/svg" xmlns:xlink="http://www.w3.org/1999/xlink">
    <title>QQ</title>
    <g id="页面-1" stroke="none" stroke-width="1" fill="none" fill-rule="evenodd">
        <g id="画板" transform="translate(-200.000000, -99.000000)" fill="#FFFFFF" fill-rule="nonzero">
            <g id="QQ" transform="translate(200.000000, 99.000000)">
                <path d="M17.3064631,13.0936505 C16.8803267,11.7508459 16.3902699,10.6222631 15.6365412,8.77525378 C15.7537287,3.92391521 13.6976207,0 8.9621804,0 C4.17347301,0 2.16264205,4.00228901 2.29048295,8.77525378 C1.53409091,10.6248756 1.04669744,11.745621 0.62056108,13.0936505 C-0.284978693,15.9542944 0.00799005682,17.1377389 0.231711648,17.1638635 C0.711115057,17.2213376 2.09872159,15.0111963 2.09872159,15.0111963 C2.09872159,16.2913018 2.76988636,17.9606638 4.2240767,19.165008 C3.5209517,19.3766172 1.94158381,19.9461336 2.31711648,20.5705115 C2.62073864,21.0747164 7.54261364,20.8918441 8.9621804,20.7350965 C10.3817472,20.8918441 15.3036222,21.0747164 15.6072443,20.5705115 C15.982777,19.948746 14.4007457,19.3766172 13.7002841,19.165008 C15.1544744,17.9580514 15.8256392,16.2886893 15.8256392,15.0111963 C15.8256392,15.0111963 17.2132457,17.2213376 17.6926491,17.1638635 C17.9190341,17.1351264 18.2120028,15.9516819 17.3064631,13.0936505 Z" id="路径"></path>
            </g>
        </g>
    </g>
</svg>