<?xml version="1.0" encoding="UTF-8"?>
<svg width="20px" height="20px" viewBox="0 0 20 20" version="1.1" xmlns="http://www.w3.org/2000/svg" xmlns:xlink="http://www.w3.org/1999/xlink">
    <title>skype (1)</title>
    <g id="页面-1" stroke="none" stroke-width="1" fill="none" fill-rule="evenodd">
        <g id="画板" transform="translate(-254.000000, -99.000000)" fill="#FFFFFF" fill-rule="nonzero">
            <g id="skype-(1)" transform="translate(254.000000, 99.000000)">
                <path d="M15.2254724,12.137173 C15.2254724,11.7045179 15.1411701,11.3086846 14.9725654,10.949673 C14.8039608,10.5906613 14.5941739,10.294392 14.3432049,10.0608648 C14.0922359,9.82733769 13.7763445,9.61537064 13.3955305,9.42496366 C13.0147166,9.23455669 12.6578852,9.08751211 12.3250363,8.98382994 C11.9921875,8.88014777 11.6135538,8.78058382 11.1891352,8.68513808 L9.83957122,8.37336483 C9.5798813,8.31280281 9.38947432,8.26726017 9.26835029,8.23673692 C9.14722626,8.20621366 8.99582122,8.15655281 8.81413517,8.08775436 C8.63244913,8.01895591 8.50260417,7.94967297 8.42460029,7.87990552 C8.34659641,7.81013808 8.27513324,7.71929506 8.21021076,7.60737645 C8.14528828,7.49545785 8.11282703,7.36561289 8.11282703,7.21784157 C8.11282703,6.5516594 8.7356468,6.21856831 9.98128634,6.21856831 C10.3533794,6.21856831 10.6864704,6.2704094 10.9805596,6.37409157 C11.2746487,6.47777374 11.5081759,6.601078 11.681141,6.74400436 C11.8541061,6.88693072 12.0185925,7.03179506 12.1746003,7.17859738 C12.330608,7.32539971 12.5035732,7.45088421 12.6934956,7.55505087 C12.8834181,7.65921754 13.0910247,7.71105862 13.3163154,7.71057413 C13.7228077,7.71057413 14.049358,7.57225048 14.2959666,7.2956032 C14.5425751,7.01895591 14.6658794,6.68586483 14.6658794,6.29632994 C14.6658794,5.82055475 14.4236313,5.39007994 13.9391352,5.00490552 C13.4546391,4.6197311 12.840298,4.32782219 12.0961119,4.12917878 C11.3519259,3.93053537 10.5646197,3.83097141 9.73419331,3.83048692 C9.14601502,3.83048692 8.57503634,3.89758963 8.02125727,4.03179506 C7.4674782,4.16600048 6.95052083,4.36924661 6.47038517,4.64153343 C5.99024952,4.91382025 5.60531734,5.29027374 5.31558866,5.7708939 C5.02585998,6.25151405 4.88099564,6.80747335 4.88099564,7.4387718 C4.88099564,7.96638808 4.96311773,8.4271439 5.12736192,8.82103924 C5.2916061,9.21493459 5.53385417,9.54148498 5.8541061,9.80069041 C6.17435804,10.0598958 6.52053052,10.2696827 6.89262355,10.4300509 C7.26471657,10.5904191 7.71021076,10.730923 8.2291061,10.8515625 L10.1237282,11.318859 C10.9023135,11.509266 11.3868096,11.6650315 11.5772166,11.7861555 C11.8538639,11.9591206 11.9921875,12.2185683 11.9921875,12.5644985 C11.9921875,12.9017078 11.8192224,13.1807776 11.4732922,13.4017078 C11.1273619,13.6226381 10.6731468,13.7328609 10.1106468,13.7323765 C9.66927083,13.7323765 9.2734375,13.6630935 8.9231468,13.5245276 C8.5728561,13.3859617 8.2916061,13.2192951 8.0793968,13.0245276 C7.8671875,12.8297602 7.67023983,12.6349927 7.48855378,12.4402253 C7.30686773,12.2454578 7.10798207,12.0787912 6.8918968,11.9402253 C6.67581153,11.8016594 6.4422844,11.7323765 6.19131541,11.7323765 C5.75866037,11.7323765 5.43210998,11.8622214 5.21166424,12.1219113 C4.99121851,12.3816013 4.88099564,12.7059714 4.88099564,13.0950218 C4.88099564,13.8910489 5.40885417,14.5724927 6.46457122,15.1393532 C7.52028828,15.7062137 8.77900921,15.9896439 10.240734,15.9896439 C10.872517,15.9896439 11.4781371,15.909702 12.0575945,15.7498183 C12.6370518,15.5899346 13.1670906,15.3585877 13.6477108,15.0557776 C14.1283309,14.7529675 14.5110828,14.3484133 14.7959666,13.8421148 C15.0808503,13.3358164 15.2235344,12.7670179 15.2240189,12.1357195 L15.2254724,12.137173 Z M19.9369549,14.9533067 C19.9369549,16.3287912 19.4502786,17.5032098 18.4769259,18.4765625 C17.5035732,19.4499152 16.3291546,19.9365916 14.9536701,19.9365916 C13.8291546,19.9365916 12.8167999,19.5904191 11.9166061,18.8980741 C11.2504239,19.03664 10.6014414,19.105923 9.96965843,19.105923 C8.73225533,19.105923 7.54911579,18.8658551 6.42023983,18.3857195 C5.29136386,17.9055838 4.31801114,17.2566013 3.50018169,16.4387718 C2.68235223,15.6209423 2.03336967,14.6475896 1.55323401,13.5187137 C1.07309835,12.3898377 0.833030523,11.2066982 0.833030523,9.96929506 C0.833030523,9.33751211 0.902313469,8.68852955 1.04087936,8.02234738 C0.348534399,7.12263808 0.0023619186,6.11028343 0.0023619186,4.98528343 C0.0023619186,3.60979893 0.489038275,2.43538033 1.46239099,1.46202762 C2.4357437,0.488674903 3.61016231,0.00199854651 4.9856468,0.00199854651 C6.11016231,0.00199854651 7.12251696,0.348171027 8.02271076,1.04051599 C8.68889293,0.901950097 9.33787548,0.832667151 9.96965843,0.832667151 C11.2070615,0.832667151 12.3902011,1.07273498 13.519077,1.55287064 C14.647953,2.0330063 15.6213057,2.68198886 16.4391352,3.49981831 C17.2569646,4.31764777 17.9059472,5.29100048 18.3860828,6.41987645 C18.8662185,7.54875242 19.1062863,8.73189196 19.1062863,9.96929506 C19.1062863,10.601078 19.0370034,11.2500606 18.8984375,11.9162427 C19.5907825,12.815952 19.9369549,13.8283067 19.9369549,14.9533067 Z" id="形状"></path>
            </g>
        </g>
    </g>
</svg>