<?xml version="1.0" encoding="UTF-8"?>
<svg width="22px" height="18px" viewBox="0 0 22 18" version="1.1" xmlns="http://www.w3.org/2000/svg" xmlns:xlink="http://www.w3.org/1999/xlink">
    <title>wechat</title>
    <g id="页面-1" stroke="none" stroke-width="1" fill="none" fill-rule="evenodd">
        <g id="画板" transform="translate(-315.000000, -101.000000)" fill="#FFFFFF" fill-rule="nonzero">
            <g id="wechat" transform="translate(315.000000, 101.000000)">
                <path d="M14.8422459,5.43178917 C15.0936378,5.43178917 15.3419428,5.4503081 15.588939,5.4779627 C14.9180585,2.34526849 11.5776334,0.0180980414 7.76437904,0.0180980414 C3.50163209,0.0180980414 0.00938397989,2.93109045 0.00938397989,6.63009738 C0.00938397989,8.76527014 1.17112069,10.5186015 3.11286369,11.8784799 L2.33730244,14.2173113 L5.04766747,12.8543134 C6.01824264,13.0469548 6.79629804,13.244622 7.76432965,13.244622 C8.00757229,13.244622 8.24898752,13.2326887 8.48847656,13.2138479 C8.33675242,12.6940306 8.24898752,12.1496781 8.24898752,11.5849499 C8.24903691,8.18826199 11.1581695,5.43178917 14.8422212,5.43178917 L14.8422459,5.43178917 Z M10.6722522,3.32389965 C11.2560098,3.32389965 11.6428026,3.70888534 11.6428026,4.2940636 C11.6428026,4.87676607 11.2559851,5.26704996 10.6722522,5.26704996 C10.0910381,5.26704996 9.50797189,4.87674131 9.50797189,4.2940636 C9.50797189,3.7089101 10.0910628,3.32392441 10.6722522,3.32392441 L10.6722522,3.32389965 Z M5.24522495,5.26707471 C4.66396148,5.26707471 4.0771664,4.87676607 4.0771664,4.29408836 C4.0771664,3.70893486 4.66401087,3.32394916 5.24522495,3.32394916 C5.82638964,3.32394916 6.21325656,3.70893486 6.21325656,4.29408836 C6.21325656,4.87676607 5.82638964,5.26707471 5.24522495,5.26707471 Z" id="形状"></path>
                <path d="M21.9194459,11.4913155 C21.9194459,8.3831316 18.8172504,5.84943057 15.3325341,5.84943057 C11.6428273,5.84943057 8.736831,8.3831316 8.736831,11.4913155 C8.736831,14.6051194 11.6428273,17.1331509 15.3325341,17.1331509 C16.1049591,17.1331509 16.8842987,16.9376128 17.6598352,16.7428175 L19.7865414,17.9106487 L19.2034505,15.9678202 C20.7602034,14.7971171 21.9194459,13.244622 21.9194459,11.4913402 L21.9194459,11.4913155 Z M13.1945425,10.5186015 C12.8083423,10.5186015 12.4183639,10.1336405 12.4183639,9.74080656 C12.4183639,9.35329555 12.8083423,8.963284 13.1945178,8.963284 C13.7807696,8.963284 14.1651176,9.35332031 14.1651176,9.74080656 C14.1651176,10.1336405 13.7807943,10.5186015 13.1945425,10.5186015 L13.1945425,10.5186015 Z M17.4598083,10.5186015 C17.0761023,10.5186015 16.6893094,10.1336405 16.6893094,9.74080656 C16.6893094,9.35329555 17.076127,8.963284 17.459833,8.963284 C18.0410471,8.963284 18.4303341,9.35332031 18.4303341,9.74080656 C18.4303587,10.1336405 18.0410471,10.5186015 17.459833,10.5186015 L17.4598083,10.5186015 Z" id="形状"></path>
            </g>
        </g>
    </g>
</svg>