<?xml version="1.0" encoding="UTF-8"?>
<svg width="20px" height="20px" viewBox="0 0 20 20" version="1.1" xmlns="http://www.w3.org/2000/svg" xmlns:xlink="http://www.w3.org/1999/xlink">
    <title>whatsapp</title>
    <g id="页面-1" stroke="none" stroke-width="1" fill="none" fill-rule="evenodd">
        <g id="画板" transform="translate(-137.000000, -100.000000)" fill="#FFFFFF" fill-rule="nonzero">
            <g id="whatsapp" transform="translate(137.000000, 100.000000)">
                <path d="M14.732649,12.0310468 C14.0384493,11.6314803 13.1981059,11.2318687 12.6865461,11.0865923 C12.1384902,10.9049855 11.4808321,12.1763909 11.4808321,12.1763909 C11.4808321,12.1763909 10.8597384,12.3216673 9.47127089,11.2319364 C8.08280342,10.1422056 7.93672783,9.16139812 7.93672783,9.16139812 C7.93672783,9.16139812 8.66742369,8.54389451 8.66742369,8.10790733 C8.66742369,7.67192016 8.37513626,6.7638638 7.82705759,6.00103866 C7.27900164,5.20186055 4.94063408,6.00103866 5.63485647,8.79816203 C5.89064771,9.85165282 6.47522257,10.9776915 8.44824219,12.6850388 C10.4212164,14.3560107 12.2846339,14.6103008 13.4538063,14.3923862 C14.5864371,14.1744265 15.4633676,12.4308165 14.7326036,12.0312274 L14.732649,12.0310468 Z" id="路径"></path>
                <path d="M10.0924782,0.00720285405 C4.61189589,0.00720285405 0.190974746,4.3663069 0.190974746,9.74248103 C0.227516352,11.7040508 0.812068496,13.4840137 1.76205941,15.0097543 C1.87168423,15.1913611 -0.137876999,19.841063 0.00828942587,19.9500542 C0.0813953488,20.0227375 5.12343296,18.1700912 5.19653888,18.2064216 C6.65804415,19.0055997 8.30221203,19.477827 10.0925236,19.477827 C15.5731059,19.477827 19.9940271,15.1187229 19.9940271,9.74254877 C19.9940271,4.36637464 15.5730832,0.00720285405 10.0925236,0.00720285405 L10.0924782,0.00720285405 Z M10.1290198,17.5525876 C8.55793514,17.5525876 7.09642987,17.0803604 5.85417424,16.3174901 C5.67151163,16.2084989 2.74850109,17.4435739 2.67548601,17.4072887 C2.60238009,17.3346053 3.77162064,14.3922281 3.69849201,14.3195674 C2.74854651,13.048162 2.20044513,11.4861588 2.20044513,9.77885658 C2.20044513,5.49245845 5.744504,2.00512554 10.1289744,2.00512554 C14.5134448,2.00512554 18.0575036,5.49245845 18.0575036,9.77885658 C18.0575036,14.0652547 14.5134448,17.5525876 10.1289744,17.5525876 L10.1290198,17.5525876 Z" id="形状"></path>
            </g>
        </g>
    </g>
</svg>